#!OML:ASF I:\Actors\actors\Patient Classification 2\Patient 1\Session 1\actor1.ASF
:FULLY-SPECIFIED
:DEGREES
123
root -0.572159 18.696 5.66975 2.39933 -4.40102 -1.68296
lowerback 1.8452 0.268353 -0.512397
upperback -2.75918 0.384845 1.33747
thorax -3.8869 0.227661 1.64533
lowerneck -16.2882 -0.668343 -2.25516
upperneck 27.2039 -0.903686 1.98893
head 11.5912 -0.393828 0.986779
rclavicle 7.31776e-015 -1.36167e-014
rhumerus -47.8464 1.97117 -88.8851
rradius 45.3813
rwrist 13.067
rhand -8.81856 -38.6362
rfingers 7.12502
rthumb 17.1211 -67.9019
lclavicle 7.31776e-015 -1.36167e-014
lhumerus -43.6528 -5.6898 93.6154
lradius 42.8243
lwrist 8.53675
lhand -10.7332 -23.4246
lfingers 7.12502
lthumb 15.2775 5.99114
rfemur 0 0 0
rtibia 0
rfoot 0 0
rtoes 0
lfemur -3.92373 -7.87204 -13.2889
ltibia 20.895
lfoot -25.1037 16.7975
ltoes -53.7732
124
root -0.571587 18.6953 5.67371 2.39083 -4.40286 -1.63995
lowerback 1.78289 0.295802 -0.499485
upperback -2.81301 0.420504 1.28445
thorax -3.90798 0.24457 1.58173
lowerneck -16.1901 -0.686491 -2.18616
upperneck 27.6771 -0.927564 1.88203
head 11.7545 -0.412738 0.935422
rclavicle -1.63935e-014 -1.32192e-014
rhumerus -48.0797 2.31157 -89.1896
rradius 45.9972
rwrist 12.4717
rhand -8.72907 -38.8273
rfingers 7.12502
rthumb 17.2072 -68.0854
lclavicle -1.63935e-014 -1.32192e-014
lhumerus -44.0542 -6.0716 93.7433
lradius 44.0822
lwrist 9.41331
lhand -10.8625 -23.9614
lfingers 7.12502
lthumb 15.1529 5.46379
rfemur 0 0 0
rtibia 0
rfoot 0 0
rtoes 0
lfemur -3.87596 -8.07386 -13.3717
ltibia 20.8744
lfoot -25.2176 16.9275
ltoes -53.6609
125
root -0.572541 18.6946 5.67785 2.37772 -4.37148 -1.62771
lowerback 1.70247 0.296452 -0.507813
upperback -2.85571 0.420337 1.25743
thorax -3.90651 0.244497 1.55884
lowerneck -16.2316 -0.709492 -2.19912
upperneck 28.3744 -0.972098 1.89965
head 12.0377 -0.433383 0.94295
rclavicle -6.16232e-015 -1.5704e-014
rhumerus -48.2879 2.69951 -89.5225
rradius 46.6946
rwrist 11.8578
rhand -8.66377 -38.994
rfingers 7.12502
rthumb 17.2701 -68.2466
lclavicle -6.16232e-015 -1.5704e-014
lhumerus -44.4771 -6.50008 93.9196
lradius 45.4969
lwrist 10.693
lhand -11.2297 -24.6307
lfingers 7.12502
lthumb 14.7992 4.82091
rfemur 0 0 0
rtibia 0
rfoot 0 0
rtoes 0
lfemur -3.83924 -8.1336 -13.39
ltibia 20.8563
lfoot -25.2533 16.9419
ltoes -53.6425
126
root -0.574379 18.6937 5.68112 2.35021 -4.35083 -1.62291
lowerback 1.61457 0.298401 -0.536306
upperback -2.86446 0.421586 1.24922
thorax -3.86597 0.245667 1.5666
lowerneck -16.3287 -0.715047 -2.17705
upperneck 29.052 -0.963331 1.7987
head 12.3268 -0.44165 0.907579
rclavicle 1.53437e-015 -4.37326e-015
rhumerus -48.4346 3.07254 -89.849
rradius 47.4745
rwrist 11.1841
rhand -8.54631 -38.9955
rfingers 7.12502
rthumb 17.3831 -68.2382
lclavicle 1.53437e-015 -4.37326e-015
lhumerus -44.8865 -6.86978 94.063
lradius 47.1416
lwrist 11.7991
lhand -11.6298 -24.975
lfingers 7.12502
lthumb 14.4137 4.5045
rfemur 0 0 0
rtibia 0
rfoot 0 0
rtoes 0
lfemur -3.80134 -8.07467 -13.3857
ltibia 20.8445
lfoot -25.1992 16.9033
ltoes -53.7091
127
root -0.575658 18.6927 5.68351 2.32891 -4.33412 -1.63288
lowerback 1.53063 0.305563 -0.539732
upperback -2.86409 0.431123 1.25473
thorax -3.8184 0.250358 1.57404
lowerneck -16.4355 -0.737498 -2.2331
upperneck 29.6604 -0.960486 1.72245
head 12.5951 -0.458173 0.893204
rclavicle 2.68981e-015 8.05078e-015
rhumerus -48.5733 3.44601 -90.147
rradius 48.3624
rwrist 10.4773
rhand -8.41833 -38.855
rfingers 7.12502
rthumb 17.5063 -68.0868
lclavicle 2.68981e-015 8.05078e-015
lhumerus -45.2838 -7.11984 94.1673
lradius 48.9682
lwrist 12.6884
lhand -11.9409 -25.0778
lfingers 7.12502
lthumb 14.114 4.42287
rfemur 0 0 0
rtibia 0
rfoot 0 0
rtoes 0
lfemur -3.7745 -8.02812 -13.3727
ltibia 20.8359
lfoot -25.1132 16.9472
ltoes -53.8684
128
root -0.576535 18.6916 5.68673 2.29566 -4.31565 -1.65402
lowerback 1.47445 0.314557 -0.523056
upperback -2.87111 0.443892 1.26074
thorax -3.79418 0.256238 1.57048
lowerneck -16.5311 -0.779384 -2.34447
upperneck 30.283 -0.992158 1.71979
head 12.8726 -0.487112 0.911214
rclavicle -3.10601e-017 1.2424e-014
rhumerus -48.7537 3.88366 -90.4779
rradius 49.3993
rwrist 9.72291
rhand -8.1298 -39.0552
rfingers 7.12502
rthumb 17.7839 -68.262
lclavicle -3.10601e-017 1.2424e-014
lhumerus -45.7544 -7.37582 94.2639
lradius 50.9889
lwrist 13.5574
lhand -12.1944 -25.1226
lfingers 7.12502
lthumb 13.8696 4.3949
rfemur 0 0 0
rtibia 0
rfoot 0 0
rtoes 0
lfemur -3.72697 -8.05346 -13.3577
ltibia 20.8335
lfoot -25.0883 17.012
ltoes -53.9691
129
root -0.577202 18.6906 5.68946 2.25452 -4.28842 -1.65444
lowerback 1.43911 0.325622 -0.530328
upperback -2.85674 0.458191 1.25791
thorax -3.75975 0.263286 1.5711
lowerneck -16.6295 -0.801036 -2.38467
upperneck 30.813 -0.996252 1.66171
head 13.1147 -0.5031 0.899048
rclavicle -1.46542e-014 -2.98177e-015
rhumerus -48.8805 4.32709 -90.8151
rradius 50.5529
rwrist 8.97001
rhand -7.71393 -39.5901
rfingers 7.12502
rthumb 18.1841 -68.7601
lclavicle -1.46542e-014 -2.98177e-015
lhumerus -46.1655 -7.52485 94.273
lradius 53.0878
lwrist 14.2155
lhand -12.2416 -25.1587
lfingers 7.12502
lthumb 13.8242 4.36197
rfemur 0 0 0
rtibia 0
rfoot 0 0
rtoes 0
lfemur -3.67575 -8.12225 -13.3671
ltibia 20.8402
lfoot -25.1305 16.9948
ltoes -53.8904
130
root -0.578411 18.6905 5.68948 2.22844 -4.21191 -1.6571
lowerback 1.42157 0.309638 -0.556101
upperback -2.81418 0.435828 1.26317
thorax -3.70527 0.252474 1.59211
lowerneck -16.7879 -0.82118 -2.36261
upperneck 31.2157 -0.993218 1.54079
head 13.3181 -0.516723 0.851266
rclavicle 2.48481e-016 -5.26779e-015
rhumerus -48.9381 4.71184 -91.1022
rradius 51.8312
rwrist 8.21699
rhand -7.22987 -40.0142
rfingers 7.12502
rthumb 18.6497 -69.1402
lclavicle 2.48481e-016 -5.26779e-015
lhumerus -46.4664 -7.48325 94.1846
lradius 55.2585
lwrist 14.5399
lhand -12.0204 -25.2467
lfingers 7.12502
lthumb 14.0373 4.25931
rfemur 0 0 0
rtibia 0
rfoot 0 0
rtoes 0
lfemur -3.66742 -8.10177 -13.3511
ltibia 20.8477
lfoot -25.0705 16.8836
ltoes -53.837
131
root -0.578807 18.6904 5.68855 2.22087 -4.21297 -1.65113
lowerback 1.39912 0.308839 -0.588374
upperback -2.79012 0.433609 1.26618
thorax -3.66788 0.25201 1.61351
lowerneck -16.849 -0.843682 -2.33496
upperneck 31.486 -0.990007 1.40219
head 13.4457 -0.532129 0.794154
rclavicle 4.4975e-015 1.44119e-014
rhumerus -49.0092 5.0316 -91.3527
rradius 53.1916
rwrist 7.47879
rhand -6.62401 -40.2341
rfingers 7.12502
rthumb 19.2324 -69.3031
lclavicle 4.4975e-015 1.44119e-014
lhumerus -46.8349 -7.36895 94.0711
lradius 57.5643
lwrist 14.3693
lhand -11.594 -25.3734
lfingers 7.12502
lthumb 14.4482 4.10361
rfemur 0 0 0
rtibia 0
rfoot 0 0
rtoes 0
lfemur -3.67013 -8.03307 -13.3531
ltibia 20.8575
lfoot -25.025 16.8441
ltoes -53.8989
132
root -0.578243 18.6903 5.68676 2.24192 -4.3343 -1.64903
lowerback 1.35513 0.351931 -0.615464
upperback -2.79104 0.490484 1.27241
thorax -3.64615 0.281107 1.63273
lowerneck -16.81 -0.861835 -2.35977
upperneck 31.6726 -0.976329 1.29876
head 13.5167 -0.544529 0.760997
rclavicle -6.23066e-015 -1.30204e-014
rhumerus -49.0871 5.36957 -91.5844
rradius 54.6418
rwrist 6.71615
rhand -5.80866 -40.5659
rfingers 7.12502
rthumb 20.0163 -69.5549
lclavicle -6.23066e-015 -1.30204e-014
lhumerus -47.2289 -7.22011 93.9626
lradius 59.8919
lwrist 13.5165
lhand -11.0633 -25.5214
lfingers 7.12502
lthumb 14.9595 3.91829
rfemur 0 0 0
rtibia 0
rfoot 0 0
rtoes 0
lfemur -3.68472 -8.00757 -13.3731
ltibia 20.8789
lfoot -25.1106 16.9243
ltoes -53.9427
133
root -0.578861 18.6905 5.68424 2.25908 -4.3864 -1.67439
lowerback 1.32032 0.380978 -0.642153
upperback -2.78579 0.528939 1.28925
thorax -3.62276 0.301134 1.66352
lowerneck -16.7938 -0.897798 -2.43635
upperneck 31.8594 -1.00366 1.29002
head 13.595 -0.568009 0.767479
rclavicle -6.39838e-016 8.34896e-015
rhumerus -49.1374 5.76297 -91.827
rradius 56.2006
rwrist 5.90443
rhand -5.14608 -40.9633
rfingers 7.12502
rthumb 20.653 -69.8845
lclavicle -6.39838e-016 8.34896e-015
lhumerus -47.5162 -7.15426 93.8768
lradius 62.1369
lwrist 12.3151
lhand -10.6792 -25.8035
lfingers 7.12502
lthumb 15.3295 3.60827
rfemur 0 0 0
rtibia 0
rfoot 0 0
rtoes 0
lfemur -3.71052 -7.97144 -13.3456
ltibia 20.8972
lfoot -25.1301 16.9557
ltoes -53.9467
134
root -0.579789 18.6912 5.68228 2.26304 -4.37561 -1.69855
lowerback 1.29852 0.397175 -0.671026
upperback -2.78138 0.549798 1.29374
thorax -3.60695 0.312306 1.68354
lowerneck -16.7536 -0.943101 -2.4902
upperneck 32.0102 -1.07244 1.33851
head 13.6539 -0.598764 0.785753
rclavicle 8.00108e-015 6.55989e-015
rhumerus -49.1978 6.17219 -92.1057
rradius 57.8689
rwrist 5.17469
rhand -4.99794 -41.2563
rfingers 7.12502
rthumb 20.7954 -70.1619
lclavicle 8.00108e-015 6.55989e-015
lhumerus -47.7077 -7.27055 93.8258
lradius 64.2694
lwrist 11.2503
lhand -10.5703 -26.2331
lfingers 7.12502
lthumb 15.4344 3.17063
rfemur 0 0 0
rtibia 0
rfoot 0 0
rtoes 0
lfemur -3.72882 -7.94141 -13.311
ltibia 20.9069
lfoot -25.0891 16.9394
ltoes -53.9462
135
root -0.580037 18.692 5.68015 2.27194 -4.40723 -1.6939
lowerback 1.29043 0.423762 -0.708074
upperback -2.79771 0.583889 1.28098
thorax -3.62075 0.330328 1.6897
lowerneck -16.6281 -0.978268 -2.49296
upperneck 32.052 -1.13658 1.36422
head 13.6463 -0.624189 0.786362
rclavicle 8.51047e-016 3.18055e-015
rhumerus -49.2798 6.52788 -92.3214
rradius 59.7546
rwrist 4.21786
rhand -4.50933 -41.9064
rfingers 7.12502
rthumb 21.2648 -70.7599
lclavicle 8.51047e-016 3.18055e-015
lhumerus -47.9438 -7.56951 93.8194
lradius 66.426
lwrist 10.546
lhand -10.5584 -26.4878
lfingers 7.12502
lthumb 15.4459 2.91502
rfemur 0 0 0
rtibia 0
rfoot 0 0
rtoes 0
lfemur -3.74332 -7.9752 -13.32
ltibia 20.9174
lfoot -25.1254 16.9814
ltoes -53.9396
136
root -0.580241 18.6927 5.67765 2.286 -4.43719 -1.70108
lowerback 1.27825 0.455682 -0.71892
upperback -2.81655 0.625741 1.26201
thorax -3.63474 0.351401 1.67439
lowerneck -16.4828 -1.01678 -2.52068
upperneck 32.0363 -1.21115 1.43009
head 13.6102 -0.651476 0.805323
rclavicle -8.18744e-015 -1.64991e-014
rhumerus -49.2848 6.80492 -92.4426
rradius 61.7203
rwrist 3.13787
rhand -3.611 -42.7037
rfingers 7.12502
rthumb 22.1275 -71.4575
lclavicle -8.18744e-015 -1.64991e-014
lhumerus -48.2146 -8.06712 93.8485
lradius 68.6625
lwrist 10.2925
lhand -10.4411 -26.3624
lfingers 7.12502
lthumb 15.5588 3.0317
rfemur 0 0 0
rtibia 0
rfoot 0 0
rtoes 0
lfemur -3.75995 -8.02548 -13.3112
ltibia 20.9231
lfoot -25.2045 17.0175
ltoes -53.8686
137
root -0.580274 18.6929 5.67553 2.28182 -4.42443 -1.72847
lowerback 1.26349 0.484663 -0.703196
upperback -2.81284 0.664343 1.24298
thorax -3.62343 0.369823 1.64434
lowerneck -16.4071 -1.05639 -2.59239
upperneck 32.0645 -1.30009 1.57903
head 13.6098 -0.678815 0.862796
rclavicle -5.28022e-016 -3.18055e-015
rhumerus -49.2109 7.17114 -92.5903
rradius 63.5213
rwrist 2.73823
rhand -3.40295 -42.8019
rfingers 7.12502
rthumb 22.3272 -71.5318
lclavicle -5.28022e-016 -3.18055e-015
lhumerus -48.4002 -8.70785 93.9101
lradius 70.8445
lwrist 10.5123
lhand -10.3451 -26.1583
lfingers 7.12502
lthumb 15.6513 3.22859
rfemur 0 0 0
rtibia 0
rfoot 0 0
rtoes 0
lfemur -3.7618 -8.03717 -13.2742
ltibia 20.9226
lfoot -25.2319 16.9733
ltoes -53.7442
